<svg xmlns="http://www.w3.org/2000/svg" width="68.267" height="68.267" viewBox="0 0 63.999998 63.999997"><g transform="translate(5.457 -10.5) scale(.08682)"><circle r="291.429" cy="489.505" cx="305.714" fill="#fff"/><path d="M305.715 120.934a368.571 368.571 0 0 0-368.572 368.57 368.571 368.571 0 0 0 368.572 368.572 368.571 368.571 0 0 0 368.57-368.572 368.571 368.571 0 0 0-368.57-368.57zm-181 178.865l10.219.639c23.61 1.477 50.121 13.254 76.818 34.123l10.418 8.142 6.643-1.256c9.73-1.84 145.253-1.742 155.021.114 7.06 1.34 7.38 1.3 10.723-1.42 18.463-15.02 36.827-26.43 51.984-32.297 10.89-4.216 27.023-7.706 35.71-7.727l6.357-.013 2.99 6.314c4.165 8.797 8.05 22.842 9.719 35.14 1.953 14.392.897 39.453-2.277 53.981l-2.479 11.338 6.412 9.545c12.383 18.432 20.69 38.235 25.541 60.902 2.13 9.955 2.54 15.378 2.56 33.866.039 34.717-4.91 59.574-16.796 84.38-7.839 16.36-15.83 27.913-27.12 39.202-24.177 24.177-57.738 38.697-100.443 43.457-12.225 1.362-151.996 1.283-164.24-.094-58.944-6.627-100.292-32.305-122.736-76.219-18.496-36.19-24.469-88.894-14.819-130.799 4.511-19.587 15.513-43.506 27.188-59.111l4.531-6.057-1.816-8.617c-6.951-32.989-4.514-64.738 6.974-90.89l2.918-6.643zm279.735 178.86c-10.202.063-23.556 1.378-42.746 3.863-24.902 3.223-36.703 4.187-56.827 4.636-24.055.538-26.889.37-53.617-3.158-45.121-5.956-59.915-5.014-75.316 4.799-20.99 13.374-34.178 44.878-34.178 81.652 0 14.393.294 16.696 3.277 25.8 8.085 24.665 27.757 43.088 53.758 50.343 7.949 2.218 25.26 4.108 45.686 4.992 18.239.79 136.925-.384 147.568-1.459 15.335-1.548 24.64-4.028 36.426-9.709 26.66-12.85 42.583-36.608 44.273-66.06 1.037-18.066-4.516-43.769-13.369-61.885-5.475-11.206-16.416-23.067-25.52-27.666-8.395-4.241-16.3-6.23-29.415-6.149zm-185.711 29.054c5.94.096 11.905 2.756 17.619 7.979 11.793 10.778 17.227 27.036 16.226 48.55-.634 13.646-2.044 19.632-6.86 29.137-7.875 15.54-22.508 23.575-34.667 19.037-11.9-4.44-20.294-15.692-24.773-33.207-6.014-23.514.41-50.969 14.996-64.082 5.605-5.04 11.52-7.51 17.459-7.414zm171.619.281c15.404-.275 29.503 14.863 33.807 38.582 4.893 26.97-5.437 56.209-22.766 64.432-5.08 2.41-12.258 3.246-16.383 1.906-12.98-4.216-23.431-17.982-27.101-35.691-1.956-9.435-1.675-26.85.574-35.528 3.839-14.815 11.625-26.243 21.1-30.964 3.589-1.79 7.214-2.673 10.769-2.737z" fill="#1a1a1a"/></g></svg>