<svg xmlns="http://www.w3.org/2000/svg" width="68.267" height="68.267" viewBox="0 0 64.000005 64.000004"><g transform="translate(14.458 -10.776) scale(.11883)"><circle r="231.429" cy="359.972" cx="147.623" fill="#fff"/><path d="M147.624 90.686a269.286 269.286 0 0 0-269.288 269.287 269.286 269.286 0 0 0 269.288 269.285 269.286 269.286 0 0 0 269.285-269.285A269.286 269.286 0 0 0 147.624 90.686zM29.895 205.914c4.774-.007 9.674.65 12.943 1.92 25.594 9.943 32.594 41.847 13.358 60.879-5.577 5.518-10.137 8.269-16.422 9.906-5.176 1.348-14.344 1.331-19.424-.035-8.33-2.24-16.447-8.002-21.058-14.95-8.345-12.57-8.392-29.071-.12-41.515 4.79-7.205 11.755-12.255 20.635-14.959 2.737-.833 6.375-1.241 10.088-1.246zm197.807 97.348c23.097-.02 39.76 5.748 52.16 17.984 8.816 8.7 14.24 18.94 17.775 33.55 4.034 16.674 4.046 16.942 4.338 90.89l.272 68.343h-63.899l-.273-60.533c-.262-58.063-.332-60.794-1.737-66.924-2.004-8.75-4.435-13.858-8.787-18.459-6.738-7.125-16.53-9.939-29.074-8.355-18.422 2.325-28.373 14.02-31.215 36.683-.427 3.412-.717 28.266-.717 61.653v55.935H102.64V308.11h61.067v13.845c0 7.616.238 13.845.53 13.842.294-.003 1.738-1.876 3.21-4.16 3.758-5.834 10.519-12.423 17.355-16.912 12.176-7.996 21.724-10.84 38.196-11.381 1.597-.053 3.165-.08 4.705-.082zm-229.444 4.847h63.907V514.03H-1.742V308.11z" fill="#214478"/></g></svg>