<?xml version="1.0" encoding="UTF-8" standalone="no"?>
<!-- Created with Inkscape (http://www.inkscape.org/) -->

<svg
   xmlns:dc="http://purl.org/dc/elements/1.1/"
   xmlns:cc="http://creativecommons.org/ns#"
   xmlns:rdf="http://www.w3.org/1999/02/22-rdf-syntax-ns#"
   xmlns:svg="http://www.w3.org/2000/svg"
   xmlns="http://www.w3.org/2000/svg"
   xmlns:xlink="http://www.w3.org/1999/xlink"
   xmlns:sodipodi="http://sodipodi.sourceforge.net/DTD/sodipodi-0.dtd"
   xmlns:inkscape="http://www.inkscape.org/namespaces/inkscape"
   width="170.80382mm"
   height="85.82608mm"
   viewBox="0 0 605.21038 304.10816"
   id="svg2"
   version="1.1"
   inkscape:version="0.91 r13725"
   sodipodi:docname="logo.svg">
  <defs
     id="defs4">
    <filter
       id="filter8080"
       style="color-interpolation-filters:sRGB">
      <feGaussianBlur
         id="feGaussianBlur8082"
         stdDeviation="5.6969168" />
    </filter>
    <linearGradient
       id="linearGradient8145">
      <stop
         offset="0"
         style="stop-color:#ffffff;stop-opacity:1"
         id="stop8147" />
      <stop
         offset="1"
         style="stop-color:#ffffff;stop-opacity:0"
         id="stop8149" />
    </linearGradient>
    <linearGradient
       gradientTransform="matrix(-0.71279747,0.09379549,-0.09554832,-0.69972126,1313.1812,-34.180384)"
       gradientUnits="userSpaceOnUse"
       xlink:href="#linearGradient8145"
       id="linearGradient5438"
       y2="-1117.4204"
       x2="247.39458"
       y1="-938.14899"
       x1="-102.18472" />
    <filter
       id="filter8080-7"
       style="color-interpolation-filters:sRGB">
      <feGaussianBlur
         id="feGaussianBlur8082-4"
         stdDeviation="5.6969168" />
    </filter>
    <linearGradient
       id="linearGradient7482">
      <stop
         offset="0"
         style="stop-color:#ffffff;stop-opacity:1"
         id="stop7484" />
      <stop
         offset="1"
         style="stop-color:#fff6d5;stop-opacity:0"
         id="stop7486" />
    </linearGradient>
    <filter
       id="filter4700"
       style="color-interpolation-filters:sRGB">
      <feGaussianBlur
         id="feGaussianBlur4702"
         stdDeviation="6.3411403" />
    </filter>
    <linearGradient
       gradientUnits="userSpaceOnUse"
       xlink:href="#linearGradient8145"
       id="linearGradient4733"
       y2="-184.28889"
       x2="-986.80841"
       y1="-792.24194"
       x1="-976.4541" />
    <clipPath
       id="clipPath3652">
      <path
         style="opacity:0.55;fill:#ffffff;stroke:#000000;stroke-width:1px;stroke-linecap:butt;stroke-linejoin:miter;stroke-opacity:1"
         id="path3654"
         d="M -1391.1209,-652.5454 C -1313.3641,-573.3969 -1233.9501,-493.2936 -1138.4655,-435.526 -1093.7278,-411.6133 -1042.2146,-404.16 -992.88663,-395.1663 -887.47072,-382.8452 -782.45246,-424.2248 -699.46136,-487.2497 -637.53559,-532.0721 -579.76109,-582.4574 -525.06971,-635.8101 -637.14023,-721.2873 -747.61439,-809.1467 -863.95779,-888.795 -882.75082,-900.7162 -906.42687,-893.0274 -927.61729,-895.2071 -1105.8268,-895.2071 -1284.0363,-895.2071 -1462.2459,-895.2071 -1438.5376,-814.3199 -1414.8292,-733.4326 -1391.1209,-652.5454 Z"
         inkscape:connector-curvature="0" />
    </clipPath>
    <clipPath
       id="clipPath3890">
      <path
         style="opacity:0.55;fill:#ffffff;stroke:#000000;stroke-width:1px;stroke-linecap:butt;stroke-linejoin:miter;stroke-opacity:1"
         id="path3892"
         d="M -1391.1209,-652.5454 C -1313.3641,-573.3969 -1233.9501,-493.2936 -1138.4655,-435.526 -1093.7278,-411.6133 -1042.2146,-404.16 -992.88663,-395.1663 -887.47072,-382.8452 -782.45246,-424.2248 -699.46136,-487.2497 -637.53559,-532.0721 -579.76109,-582.4574 -525.06971,-635.8101 -637.14023,-721.2873 -747.61439,-809.1467 -863.95779,-888.795 -882.75082,-900.7162 -906.42687,-893.0274 -927.61729,-895.2071 -1105.8268,-895.2071 -1284.0363,-895.2071 -1462.2459,-895.2071 -1438.5376,-814.3199 -1414.8292,-733.4326 -1391.1209,-652.5454 Z"
         inkscape:connector-curvature="0" />
    </clipPath>
    <filter
       id="filter4194-3"
       height="1.2205"
       width="1.1356924"
       y="-0.11025"
       x="-0.067846157"
       style="color-interpolation-filters:sRGB">
      <feGaussianBlur
         stdDeviation="7.453726"
         id="feGaussianBlur4196-9" />
    </filter>
    <linearGradient
       id="linearGradient4160-2">
      <stop
         offset="0"
         style="stop-color:#ff9955;stop-opacity:1"
         id="stop4162-4" />
      <stop
         offset="1"
         style="stop-color:#ff9955;stop-opacity:0"
         id="stop4164-6" />
    </linearGradient>
    <linearGradient
       id="linearGradient3932-7">
      <stop
         offset="0"
         style="stop-color:#008080;stop-opacity:1"
         id="stop3934-6" />
      <stop
         offset="1"
         style="stop-color:#008080;stop-opacity:0"
         id="stop3936-2" />
    </linearGradient>
    <linearGradient
       id="linearGradient3942-9">
      <stop
         offset="0"
         style="stop-color:#000000;stop-opacity:1"
         id="stop3944-5" />
      <stop
         offset="1"
         style="stop-color:#000000;stop-opacity:0"
         id="stop3946-2" />
    </linearGradient>
    <filter
       id="filter5243"
       style="color-interpolation-filters:sRGB">
      <feGaussianBlur
         stdDeviation="21.795943"
         id="feGaussianBlur5245" />
    </filter>
    <filter
       id="filter4907"
       style="color-interpolation-filters:sRGB">
      <feGaussianBlur
         id="feGaussianBlur4909"
         stdDeviation="13.08082" />
    </filter>
    <filter
       id="filter4809"
       style="color-interpolation-filters:sRGB">
      <feGaussianBlur
         id="feGaussianBlur4811"
         stdDeviation="13.08082" />
    </filter>
    <filter
       id="filter4931"
       style="color-interpolation-filters:sRGB">
      <feGaussianBlur
         id="feGaussianBlur4933"
         stdDeviation="11.540578" />
    </filter>
    <filter
       id="filter4696"
       style="color-interpolation-filters:sRGB">
      <feGaussianBlur
         id="feGaussianBlur4698"
         stdDeviation="5.3090554" />
    </filter>
    <linearGradient
       gradientTransform="translate(15.211682,-20.282245)"
       gradientUnits="userSpaceOnUse"
       xlink:href="#linearGradient8145"
       id="linearGradient5748"
       y2="753.19904"
       x2="2281.7529"
       y1="940.80981"
       x1="-70.987877" />
    <filter
       id="filter4923"
       style="color-interpolation-filters:sRGB">
      <feGaussianBlur
         id="feGaussianBlur4925"
         stdDeviation="11.551671" />
    </filter>
    <linearGradient
       id="linearGradient5437">
      <stop
         offset="0"
         style="stop-color:#550000;stop-opacity:1"
         id="stop5439" />
      <stop
         offset="1"
         style="stop-color:#550000;stop-opacity:0"
         id="stop5441" />
    </linearGradient>
    <linearGradient
       id="linearGradient5350">
      <stop
         offset="0"
         style="stop-color:#2b1100;stop-opacity:1"
         id="stop5352" />
      <stop
         offset="1"
         style="stop-color:#2b1100;stop-opacity:0"
         id="stop5354" />
    </linearGradient>
    <filter
       id="filter5418"
       height="1"
       width="1"
       y="0"
       x="0"
       style="color-interpolation-filters:sRGB">
      <feTurbulence
         id="feTurbulence5420"
         result="result1"
         numOctaves="1"
         baseFrequency="0.21"
         type="fractalNoise" />
      <feColorMatrix
         id="feColorMatrix5422"
         result="result0"
         in="SourceGraphic"
         type="luminanceToAlpha" />
      <feColorMatrix
         id="feColorMatrix5424"
         values="1 0 0 0 0 0 1 0 0 0 0 0 1 0 0 0 0 0 0.8 0"
         result="result2" />
      <feComposite
         id="feComposite5426"
         in="result1"
         operator="over"
         in2="result2" />
      <feColorMatrix
         id="feColorMatrix5428"
         values="1 0 0 0 0 0 1 0 0 0 0 0 1 0 0 0 0 0 20 -14"
         result="result91" />
      <feComposite
         id="feComposite5430"
         in="SourceGraphic"
         operator="out"
         in2="result91" />
    </filter>
    <filter
       id="filter5404"
       height="1"
       width="1"
       y="0"
       x="0"
       style="color-interpolation-filters:sRGB">
      <feTurbulence
         id="feTurbulence5406"
         result="result1"
         numOctaves="1"
         baseFrequency="0.21"
         type="fractalNoise" />
      <feColorMatrix
         id="feColorMatrix5408"
         result="result0"
         in="SourceGraphic"
         type="luminanceToAlpha" />
      <feColorMatrix
         id="feColorMatrix5410"
         values="1 0 0 0 0 0 1 0 0 0 0 0 1 0 0 0 0 0 0.8 0"
         result="result2" />
      <feComposite
         id="feComposite5412"
         in="result1"
         operator="over"
         in2="result2" />
      <feColorMatrix
         id="feColorMatrix5414"
         values="1 0 0 0 0 0 1 0 0 0 0 0 1 0 0 0 0 0 20 -14"
         result="result91" />
      <feComposite
         id="feComposite5416"
         in="SourceGraphic"
         operator="out"
         in2="result91" />
    </filter>
    <linearGradient
       id="linearGradient5320">
      <stop
         offset="0"
         style="stop-color:#aa4400;stop-opacity:1"
         id="stop5322" />
      <stop
         offset="1"
         style="stop-color:#aa4400;stop-opacity:0"
         id="stop5324" />
    </linearGradient>
    <filter
       id="filter5390"
       height="1"
       width="1"
       y="0"
       x="0"
       style="color-interpolation-filters:sRGB">
      <feTurbulence
         id="feTurbulence5392"
         result="result1"
         numOctaves="1"
         baseFrequency="0.21"
         type="fractalNoise" />
      <feColorMatrix
         id="feColorMatrix5394"
         result="result0"
         in="SourceGraphic"
         type="luminanceToAlpha" />
      <feColorMatrix
         id="feColorMatrix5396"
         values="1 0 0 0 0 0 1 0 0 0 0 0 1 0 0 0 0 0 0.8 0"
         result="result2" />
      <feComposite
         id="feComposite5398"
         in="result1"
         operator="over"
         in2="result2" />
      <feColorMatrix
         id="feColorMatrix5400"
         values="1 0 0 0 0 0 1 0 0 0 0 0 1 0 0 0 0 0 20 -14"
         result="result91" />
      <feComposite
         id="feComposite5402"
         in="SourceGraphic"
         operator="out"
         in2="result91" />
    </filter>
    <filter
       id="filter5362"
       height="1"
       width="1"
       y="0"
       x="0"
       style="color-interpolation-filters:sRGB">
      <feTurbulence
         id="feTurbulence5364"
         result="result1"
         numOctaves="1"
         baseFrequency="0.21"
         type="fractalNoise" />
      <feColorMatrix
         id="feColorMatrix5366"
         result="result0"
         in="SourceGraphic"
         type="luminanceToAlpha" />
      <feColorMatrix
         id="feColorMatrix5368"
         values="1 0 0 0 0 0 1 0 0 0 0 0 1 0 0 0 0 0 0.8 0"
         result="result2" />
      <feComposite
         id="feComposite5370"
         in="result1"
         operator="over"
         in2="result2" />
      <feColorMatrix
         id="feColorMatrix5372"
         values="1 0 0 0 0 0 1 0 0 0 0 0 1 0 0 0 0 0 20 -14"
         result="result91" />
      <feComposite
         id="feComposite5374"
         in="SourceGraphic"
         operator="out"
         in2="result91" />
    </filter>
    <linearGradient
       id="linearGradient5312">
      <stop
         offset="0"
         style="stop-color:#800000;stop-opacity:1"
         id="stop5314" />
      <stop
         offset="1"
         style="stop-color:#ffffff;stop-opacity:1"
         id="stop5316" />
    </linearGradient>
    <linearGradient
       id="linearGradient5290">
      <stop
         offset="0"
         style="stop-color:#800000;stop-opacity:1"
         id="stop5292" />
      <stop
         offset="1"
         style="stop-color:#800000;stop-opacity:0"
         id="stop5294" />
    </linearGradient>
    <linearGradient
       gradientTransform="matrix(1,0,0,1.5911657,-2182.2546,759.0982)"
       gradientUnits="userSpaceOnUse"
       xlink:href="#linearGradient5437"
       id="linearGradient3454"
       y2="-626.87701"
       x2="-6599.7124"
       y1="-914.31433"
       x1="-6622.4048" />
    <linearGradient
       gradientTransform="matrix(1,0,0,1.5911657,-2178.4725,244.56773)"
       gradientUnits="userSpaceOnUse"
       xlink:href="#linearGradient5437"
       id="linearGradient3462"
       y2="-626.87701"
       x2="-6599.7124"
       y1="-914.31433"
       x1="-6622.4048" />
    <linearGradient
       gradientUnits="userSpaceOnUse"
       xlink:href="#linearGradient5350"
       id="linearGradient3470"
       y2="-668.47974"
       x2="-4425.022"
       y1="-740.33911"
       x1="-4425.0225" />
    <filter
       id="filter3478"
       height="1"
       width="1"
       y="0"
       x="0"
       style="color-interpolation-filters:sRGB">
      <feTurbulence
         id="feTurbulence3480"
         result="result1"
         numOctaves="1"
         baseFrequency="0.21"
         type="fractalNoise" />
      <feColorMatrix
         id="feColorMatrix3482"
         result="result0"
         in="SourceGraphic"
         type="luminanceToAlpha" />
      <feColorMatrix
         id="feColorMatrix3484"
         values="1 0 0 0 0 0 1 0 0 0 0 0 1 0 0 0 0 0 0.8 0"
         result="result2" />
      <feComposite
         id="feComposite3486"
         in="result1"
         operator="over"
         in2="result2" />
      <feColorMatrix
         id="feColorMatrix3488"
         values="1 0 0 0 0 0 1 0 0 0 0 0 1 0 0 0 0 0 20 -14"
         result="result91" />
      <feComposite
         id="feComposite3490"
         in="SourceGraphic"
         operator="out"
         in2="result91" />
    </filter>
    <filter
       id="filter3500"
       height="1"
       width="1"
       y="0"
       x="0"
       style="color-interpolation-filters:sRGB">
      <feTurbulence
         id="feTurbulence3502"
         result="result1"
         numOctaves="1"
         baseFrequency="0.21"
         type="fractalNoise" />
      <feColorMatrix
         id="feColorMatrix3504"
         result="result0"
         in="SourceGraphic"
         type="luminanceToAlpha" />
      <feColorMatrix
         id="feColorMatrix3506"
         values="1 0 0 0 0 0 1 0 0 0 0 0 1 0 0 0 0 0 0.8 0"
         result="result2" />
      <feComposite
         id="feComposite3508"
         in="result1"
         operator="over"
         in2="result2" />
      <feColorMatrix
         id="feColorMatrix3510"
         values="1 0 0 0 0 0 1 0 0 0 0 0 1 0 0 0 0 0 20 -14"
         result="result91" />
      <feComposite
         id="feComposite3512"
         in="SourceGraphic"
         operator="out"
         in2="result91" />
    </filter>
    <radialGradient
       gradientTransform="matrix(1.2172033,-0.05165022,0.01003912,0.23658446,970.71229,-1267.8404)"
       gradientUnits="userSpaceOnUse"
       xlink:href="#linearGradient5320"
       id="radialGradient3514"
       fy="2148.1033"
       fx="-4400.897"
       r="630.19824"
       cy="2148.1033"
       cx="-4400.897" />
    <filter
       id="filter3522"
       height="1"
       width="1"
       y="0"
       x="0"
       style="color-interpolation-filters:sRGB">
      <feTurbulence
         id="feTurbulence3524"
         result="result1"
         numOctaves="1"
         baseFrequency="0.21"
         type="fractalNoise" />
      <feColorMatrix
         id="feColorMatrix3526"
         result="result0"
         in="SourceGraphic"
         type="luminanceToAlpha" />
      <feColorMatrix
         id="feColorMatrix3528"
         values="1 0 0 0 0 0 1 0 0 0 0 0 1 0 0 0 0 0 0.8 0"
         result="result2" />
      <feComposite
         id="feComposite3530"
         in="result1"
         operator="over"
         in2="result2" />
      <feColorMatrix
         id="feColorMatrix3532"
         values="1 0 0 0 0 0 1 0 0 0 0 0 1 0 0 0 0 0 20 -14"
         result="result91" />
      <feComposite
         id="feComposite3534"
         in="SourceGraphic"
         operator="out"
         in2="result91" />
    </filter>
    <radialGradient
       gradientTransform="matrix(1.2172033,-0.05165022,0.01003912,0.23658446,970.71227,-1267.8404)"
       gradientUnits="userSpaceOnUse"
       xlink:href="#linearGradient5320"
       id="radialGradient3536"
       fy="-443.08932"
       fx="-4407.4902"
       r="630.19824"
       cy="-443.08932"
       cx="-4407.4902" />
    <filter
       id="filter3544"
       height="1"
       width="1"
       y="0"
       x="0"
       style="color-interpolation-filters:sRGB">
      <feTurbulence
         id="feTurbulence3546"
         result="result1"
         numOctaves="1"
         baseFrequency="0.21"
         type="fractalNoise" />
      <feColorMatrix
         id="feColorMatrix3548"
         result="result0"
         in="SourceGraphic"
         type="luminanceToAlpha" />
      <feColorMatrix
         id="feColorMatrix3550"
         values="1 0 0 0 0 0 1 0 0 0 0 0 1 0 0 0 0 0 0.8 0"
         result="result2" />
      <feComposite
         id="feComposite3552"
         in="result1"
         operator="over"
         in2="result2" />
      <feColorMatrix
         id="feColorMatrix3554"
         values="1 0 0 0 0 0 1 0 0 0 0 0 1 0 0 0 0 0 20 -14"
         result="result91" />
      <feComposite
         id="feComposite3556"
         in="SourceGraphic"
         operator="out"
         in2="result91" />
    </filter>
    <linearGradient
       gradientTransform="matrix(-0.99415777,0.10793665,-0.10793665,-0.99415777,-4.8218112e-5,-1.2312965e-5)"
       gradientUnits="userSpaceOnUse"
       xlink:href="#linearGradient5312"
       id="linearGradient3558"
       y2="-1095.8538"
       x2="-4807.0112"
       y1="-1012.6482"
       x1="-3956.0454" />
    <linearGradient
       gradientTransform="matrix(-0.99415777,0.10793665,-0.10793665,-0.99415777,-4.8218112e-5,-1.2312965e-5)"
       gradientUnits="userSpaceOnUse"
       xlink:href="#linearGradient5290"
       id="linearGradient3566"
       y2="-1001.3019"
       x2="-4969.6401"
       y1="-1031.5585"
       x1="-4617.9077" />
    <linearGradient
       gradientTransform="translate(0,-7.7862452e-6)"
       gradientUnits="userSpaceOnUse"
       xlink:href="#linearGradient5290"
       id="linearGradient3574"
       y2="-1001.3019"
       x2="-4969.6401"
       y1="-1031.5585"
       x1="-4617.9077" />
    <radialGradient
       gradientTransform="matrix(0.61832356,0.17130547,-0.20648134,0.74528935,-1026.6737,-626.32064)"
       gradientUnits="userSpaceOnUse"
       xlink:href="#linearGradient6165"
       id="radialGradient7564"
       fy="889.21832"
       fx="1486.9359"
       r="133.62402"
       cy="889.21832"
       cx="1486.9359" />
    <linearGradient
       id="linearGradient6165">
      <stop
         offset="0"
         style="stop-color:#00ff00;stop-opacity:1"
         id="stop6167" />
      <stop
         offset="1"
         style="stop-color:#00ff00;stop-opacity:0"
         id="stop6169" />
    </linearGradient>
    <linearGradient
       gradientTransform="matrix(0.14217732,-0.410915,0.45691897,0.15809478,-1397.8032,1295.4466)"
       gradientUnits="userSpaceOnUse"
       xlink:href="#linearGradient8145"
       id="linearGradient7566"
       y2="1668.7738"
       x2="3019.0671"
       y1="1376.3158"
       x1="3010.0684" />
    <radialGradient
       gradientTransform="matrix(0.41449447,1.7826668,-1.3546289,0.16565874,966.72386,-2737.1403)"
       gradientUnits="userSpaceOnUse"
       xlink:href="#linearGradient5974"
       id="radialGradient7568"
       fy="909.59375"
       fx="1533.6852"
       r="133.62402"
       cy="909.59375"
       cx="1533.6852" />
    <linearGradient
       id="linearGradient5974">
      <stop
         offset="0"
         style="stop-color:#ff6600;stop-opacity:1"
         id="stop5976" />
      <stop
         offset="1"
         style="stop-color:#803300;stop-opacity:1"
         id="stop5978" />
    </linearGradient>
    <linearGradient
       gradientUnits="userSpaceOnUse"
       xlink:href="#linearGradient5994"
       id="linearGradient7570"
       y2="1007.1443"
       x2="1461.639"
       y1="957.26312"
       x1="1497.2683"
       gradientTransform="matrix(0.42395724,-1.2253036,1.2253036,0.42395724,-1666.8927,1849.7086)" />
    <linearGradient
       id="linearGradient5994">
      <stop
         offset="0"
         style="stop-color:#ff6600;stop-opacity:1"
         id="stop5996" />
      <stop
         offset="1"
         style="stop-color:#ff6600;stop-opacity:0"
         id="stop5998" />
    </linearGradient>
    <linearGradient
       gradientTransform="matrix(0.14864222,-0.42959956,0.46166347,0.15973638,-1055.7024,1233.2408)"
       gradientUnits="userSpaceOnUse"
       xlink:href="#linearGradient8145"
       id="linearGradient7572"
       y2="1947.7338"
       x2="2861.5896"
       y1="1371.8164"
       x1="2501.6411" />
    <radialGradient
       gradientTransform="matrix(-0.43689275,-0.48065966,0.58931052,-0.53565019,-30.767103,1847.8736)"
       gradientUnits="userSpaceOnUse"
       xlink:href="#linearGradient6061"
       id="radialGradient7574"
       fy="910.68219"
       fx="1480.2507"
       r="133.62402"
       cy="910.68219"
       cx="1480.2507" />
    <linearGradient
       id="linearGradient6061">
      <stop
         offset="0"
         style="stop-color:#00ffff;stop-opacity:1"
         id="stop6063" />
      <stop
         offset="1"
         style="stop-color:#00ffff;stop-opacity:0"
         id="stop6065" />
    </linearGradient>
    <linearGradient
       gradientTransform="matrix(0.15434036,-0.4460681,0.41478095,0.14351495,-1735.7863,1759.0325)"
       gradientUnits="userSpaceOnUse"
       xlink:href="#linearGradient8145"
       id="linearGradient7576"
       y2="2712.6243"
       x2="3478.0012"
       y1="2429.1646"
       x1="3140.5496" />
    <linearGradient
       gradientUnits="userSpaceOnUse"
       xlink:href="#linearGradient6263"
       id="linearGradient7578"
       y2="2514.6523"
       x2="5102.2686"
       y1="2433.6641"
       x1="5156.2603"
       gradientTransform="matrix(0.16786123,-0.48514556,0.48514556,0.16786123,-1807.7076,2274.0114)" />
    <linearGradient
       id="linearGradient6263">
      <stop
         offset="0"
         style="stop-color:#e6e6e6;stop-opacity:1"
         id="stop6265" />
      <stop
         offset="1"
         style="stop-color:#e6e6e6;stop-opacity:0"
         id="stop6267" />
    </linearGradient>
    <linearGradient
       gradientUnits="userSpaceOnUse"
       xlink:href="#linearGradient8145"
       id="linearGradient7580"
       y2="1439.3066"
       x2="3190.0427"
       y1="1457.3042"
       x1="3019.0671"
       gradientTransform="matrix(0.16786123,-0.48514556,0.48514556,0.16786123,-1390.9799,1599.4043)" />
    <filter
       id="filter6381"
       height="1.1923134"
       width="2.363677"
       y="-0.096156701"
       x="-0.68183851"
       style="color-interpolation-filters:sRGB">
      <feGaussianBlur
         stdDeviation="14.060903"
         id="feGaussianBlur6383" />
    </filter>
    <linearGradient
       gradientUnits="userSpaceOnUse"
       xlink:href="#linearGradient6396"
       id="linearGradient7582"
       y2="1646.277"
       x2="3113.5537"
       y1="1547.2913"
       x1="3149.5481"
       gradientTransform="matrix(0.16786123,-0.48514556,0.48514556,0.16786123,-1356.6179,1789.7177)" />
    <linearGradient
       id="linearGradient6396">
      <stop
         offset="0"
         style="stop-color:#000000;stop-opacity:1"
         id="stop6398" />
      <stop
         offset="0.32547623"
         style="stop-color:#ffffff;stop-opacity:0.51372552"
         id="stop6404" />
      <stop
         offset="1"
         style="stop-color:#ffffff;stop-opacity:0"
         id="stop6400" />
    </linearGradient>
    <radialGradient
       gradientTransform="matrix(-0.51084952,-3.3133868,2.4472422,-0.37731,-1349.2156,5785.3914)"
       gradientUnits="userSpaceOnUse"
       xlink:href="#linearGradient5974"
       id="radialGradient7584"
       fy="909.59375"
       fx="1533.6852"
       r="133.62402"
       cy="909.59375"
       cx="1533.6852" />
    <radialGradient
       gradientTransform="matrix(0.16542469,-0.08346348,0.82768428,1.6404729,-1492.0352,-1456.6001)"
       gradientUnits="userSpaceOnUse"
       xlink:href="#linearGradient6201"
       id="radialGradient7590"
       fy="1365.7191"
       fx="3172.0452"
       r="247.47273"
       cy="1365.7191"
       cx="3172.0452" />
    <linearGradient
       id="linearGradient6201">
      <stop
         offset="0"
         style="stop-color:#b3b3b3;stop-opacity:1"
         id="stop6203" />
      <stop
         offset="1"
         style="stop-color:#b3b3b3;stop-opacity:0"
         id="stop6205" />
    </linearGradient>
    <linearGradient
       gradientUnits="userSpaceOnUse"
       xlink:href="#linearGradient6235"
       id="linearGradient7592"
       y2="1380.8151"
       x2="3154.0479"
       y1="1425.8086"
       x1="3199.0415"
       gradientTransform="matrix(0.16786123,-0.48514556,0.48514556,0.16786123,-1032.7276,1828.4593)" />
    <linearGradient
       id="linearGradient6235">
      <stop
         offset="0"
         style="stop-color:#1a1a1a;stop-opacity:1"
         id="stop6237" />
      <stop
         offset="1"
         style="stop-color:#1a1a1a;stop-opacity:0"
         id="stop6239" />
    </linearGradient>
    <radialGradient
       gradientTransform="matrix(0.97676123,-0.74665152,0.73015552,0.95518344,-1915.5536,1005.1725)"
       gradientUnits="userSpaceOnUse"
       xlink:href="#linearGradient5962"
       id="radialGradient7594"
       fy="899.72345"
       fx="1558.8595"
       r="133.62402"
       cy="899.72345"
       cx="1558.8595" />
    <linearGradient
       id="linearGradient5962">
      <stop
         offset="0"
         style="stop-color:#ffff00;stop-opacity:1"
         id="stop5964" />
      <stop
         offset="1"
         style="stop-color:#ffff00;stop-opacity:0"
         id="stop5966" />
    </linearGradient>
    <radialGradient
       gradientTransform="matrix(0.97676123,-0.74665152,0.73015552,0.95518344,-1915.5536,1005.1725)"
       gradientUnits="userSpaceOnUse"
       xlink:href="#linearGradient5962"
       id="radialGradient7596"
       fy="899.72345"
       fx="1558.8595"
       r="133.62402"
       cy="899.72345"
       cx="1558.8595" />
    <linearGradient
       gradientTransform="matrix(0.1563781,-0.45195748,0.48514556,0.16786123,-1322.2579,2290.8544)"
       gradientUnits="userSpaceOnUse"
       xlink:href="#linearGradient8145"
       id="linearGradient7598"
       y2="2073.7158"
       x2="4242.8916"
       y1="1547.2911"
       x1="4449.8618" />
    <linearGradient
       gradientTransform="matrix(0.1563781,-0.45195748,0.48514556,0.16786123,-1319.3198,2289.4268)"
       gradientUnits="userSpaceOnUse"
       xlink:href="#linearGradient8145"
       id="linearGradient7600"
       y2="2073.7158"
       x2="4242.8916"
       y1="1547.2911"
       x1="4449.8618" />
    <linearGradient
       gradientUnits="userSpaceOnUse"
       xlink:href="#linearGradient6263"
       id="linearGradient7602"
       y2="2595.6411"
       x2="5120.2661"
       y1="2532.6497"
       x1="5061.7744"
       gradientTransform="matrix(0.16786123,-0.48514556,0.48514556,0.16786123,-2108.5163,2196.8168)" />
    <radialGradient
       gradientTransform="matrix(-0.61920965,-0.80394642,0.95633038,-0.73657776,22.195029,1882.3208)"
       gradientUnits="userSpaceOnUse"
       xlink:href="#linearGradient6111"
       id="radialGradient7604"
       fy="904.91211"
       fx="1585.3181"
       r="133.62402"
       cy="904.91211"
       cx="1585.3181" />
    <linearGradient
       id="linearGradient6111">
      <stop
         offset="0"
         style="stop-color:#ffff00;stop-opacity:1"
         id="stop6113" />
      <stop
         offset="1"
         style="stop-color:#808000;stop-opacity:1"
         id="stop6115" />
    </linearGradient>
    <linearGradient
       gradientTransform="matrix(0.14973369,-0.43275409,0.45545334,0.15758767,-1144.5231,715.94697)"
       gradientUnits="userSpaceOnUse"
       xlink:href="#linearGradient8145"
       id="linearGradient7606"
       y2="1785.7571"
       x2="2150.6914"
       y1="1475.3015"
       x1="2429.6516" />
    <linearGradient
       gradientUnits="userSpaceOnUse"
       xlink:href="#linearGradient8145"
       id="linearGradient13055"
       y2="154.31836"
       x2="5801.6323"
       y1="-1494.2585"
       x1="5853.4468" />
    <clipPath
       id="clipPath8421">
      <path
         style="fill:none;stroke:#000000;stroke-width:0.46704537px;stroke-linecap:butt;stroke-linejoin:miter;stroke-opacity:1"
         id="path8423"
         d="M 4712.6297,-466.92992 C 4712.6297,-466.92992 5212.9976,-572.9246 5400.7006,-567.72986 5588.4036,-562.53512 5757.3068,-447.09712 6095.9657,-413.39297 6434.6246,-379.68881 6815.2216,-450.50331 6900.0995,-491.37023 6984.9774,-532.23715 7410.1082,-748.17231 7410.1082,-748.17231 L 7023.8002,-955.69577 5161.4361,-961.29767 4696.7028,-861.21682 Z"
         inkscape:connector-curvature="0" />
    </clipPath>
  </defs>
  <sodipodi:namedview
     id="base"
     pagecolor="#ffffff"
     bordercolor="#666666"
     borderopacity="1.0"
     inkscape:pageopacity="0.0"
     inkscape:pageshadow="2"
     inkscape:zoom="0.9899495"
     inkscape:cx="92.725302"
     inkscape:cy="253.89299"
     inkscape:document-units="px"
     inkscape:current-layer="layer1"
     showgrid="false"
     inkscape:window-width="1366"
     inkscape:window-height="705"
     inkscape:window-x="-8"
     inkscape:window-y="-8"
     inkscape:window-maximized="1"
     fit-margin-top="0"
     fit-margin-left="0"
     fit-margin-right="0"
     fit-margin-bottom="0" />
  <metadata
     id="metadata7">
    <rdf:RDF>
      <cc:Work
         rdf:about="">
        <dc:format>image/svg+xml</dc:format>
        <dc:type
           rdf:resource="http://purl.org/dc/dcmitype/StillImage" />
        <dc:title />
      </cc:Work>
    </rdf:RDF>
  </metadata>
  <g
     inkscape:label="Layer 1"
     inkscape:groupmode="layer"
     id="layer1"
     transform="translate(-69.442046,-374.12702)">
    <path
       style="fill:#ffffff;fill-opacity:0.11801242;stroke:none"
       d="M 338.55554,374.12841 C 325.5976,374.00017 313.13059,382.74752 308.36086,396.5328 302.49042,413.4993 310.50312,431.67277 326.25772,437.12389 329.98336,438.41296 333.808,438.87406 337.55458,438.604 L 356.31509,475.05744 C 348.80204,480.36817 342.51066,487.8159 338.40478,496.89152 L 299.98448,492.14326 C 298.2534,482.96169 291.81129,475.31644 282.70467,472.99359 269.84954,469.71459 256.56536,478.2794 253.03413,492.12339 249.50291,505.96737 257.06147,519.84779 269.9166,523.12678 280.51963,525.83132 291.40896,520.4745 296.88228,510.74775 L 333.44849,521.41002 C 333.7431,531.20418 336.69724,540.53244 341.83363,548.29447 L 322.63196,572.81881 C 322.21069,572.64933 321.78456,572.48788 321.35111,572.33791 306.03167,567.03736 288.98502,576.11456 283.27673,592.61241 277.56844,609.11026 285.35982,626.78103 300.67925,632.08158 315.99869,637.38213 333.04534,628.30551 338.75363,611.80766 341.98012,602.48258 340.89217,592.783 336.57115,585.15402 L 357.02739,562.74729 C 359.52821,564.20798 362.19753,565.44555 365.02511,566.4239 373.2594,569.27298 381.79775,569.58861 389.88603,567.77312 L 394.5373,584.5247 C 389.92947,590.03178 386.19403,596.51187 383.67577,603.79007 373.3065,633.75889 387.45984,665.85937 415.28804,675.48797 443.11623,685.11658 474.08127,668.62705 484.45053,638.65822 494.8198,608.6894 480.66646,576.5895 452.83827,566.9609 443.78727,563.82924 434.40494,563.46314 425.5068,565.42236 L 416.10318,552.34212 C 420.97839,547.00956 424.90952,540.54639 427.45905,533.17785 432.10045,519.76347 431.29682,505.87746 426.24657,494.22464 L 450.52023,472.98073 C 452.55584,474.36389 454.79132,475.50604 457.19912,476.34764 471.59228,481.37847 486.6545,473.82101 490.84135,459.46751 495.0282,445.114 486.75448,429.39996 472.36133,424.36913 457.96818,419.3383 442.90595,426.89576 438.7191,441.24926 437.0869,446.84481 437.34862,452.64685 439.12813,457.94241 L 413.95693,477.21187 C 409.65151,473.42759 404.60437,470.42154 398.9227,468.45568 389.89488,465.33203 380.50106,465.25346 371.73615,467.6902 371.63764,467.71759 371.53999,467.74808 371.44164,467.7761 L 357.47031,429.16122 C 360.90894,425.65964 363.6732,421.30185 365.41311,416.27323 371.28355,399.30673 363.27085,381.13385 347.51624,375.68273 344.56225,374.66065 341.54583,374.15801 338.55554,374.12841 Z"
       id="path7333"
       inkscape:connector-curvature="0" />
    <g
       style="font-style:normal;font-weight:normal;font-size:40px;line-height:125%;font-family:sans-serif;letter-spacing:0px;word-spacing:0px;fill:#ffffff;fill-opacity:1;stroke:none;stroke-width:1px;stroke-linecap:butt;stroke-linejoin:miter;stroke-opacity:1"
       id="text4136"
       transform="matrix(3.2716386,0,0,3.2716386,-229.54834,-28.443617)">
      <path
         d="M 114.82857,171.59079 114.82857,171.75079 114.82857,183.03079 111.86857,183.03079 111.86857,179.47079 Q 108.14857,183.71079 102.74857,183.55079 98.028574,183.39079 94.708574,179.91079 91.388574,176.43079 91.388574,171.63079 91.388574,166.63079 94.948574,163.07079 98.508574,159.47079 103.46857,159.67079 108.26857,159.83079 111.62857,163.35079 114.98857,166.83079 114.82857,171.59079 Z M 111.78857,171.35079 Q 111.70857,167.75079 109.22857,165.19079 106.74857,162.63079 103.26857,162.63079 99.628574,162.63079 97.068574,165.19079 94.508574,167.75079 94.468574,171.39079 94.388574,174.99079 96.828574,177.71079 99.308574,180.39079 102.78857,180.55079 106.54857,180.71079 109.18857,177.95079 111.86857,175.15079 111.78857,171.35079 Z"
         style="font-style:normal;font-variant:normal;font-weight:normal;font-stretch:normal;font-family:abeatbyKai;-inkscape-font-specification:abeatbyKai;fill:#ffffff;fill-opacity:1"
         id="path4972"
         inkscape:connector-curvature="0" />
      <path
         d="M 136.43732,160.23079 126.91732,183.03079 123.75732,183.03079 114.39732,160.23079 117.59732,160.23079 125.35732,179.03079 133.07732,160.23079 136.43732,160.23079 Z"
         style="font-style:normal;font-variant:normal;font-weight:normal;font-stretch:normal;font-family:abeatbyKai;-inkscape-font-specification:abeatbyKai;fill:#ffffff;fill-opacity:1"
         id="path4974"
         inkscape:connector-curvature="0" />
      <path
         d="M 159.16545,171.63079 Q 159.16545,176.55079 155.56545,180.15079 152.00545,183.71079 147.08545,183.55079 142.32545,183.43079 139.00545,179.95079 135.72545,176.47079 135.72545,171.67079 135.72545,166.67079 139.28545,163.11079 142.84545,159.51079 147.76545,159.67079 152.52545,159.83079 155.84545,163.35079 159.16545,166.83079 159.16545,171.63079 Z M 156.12545,171.39079 Q 156.00545,167.79079 153.52545,165.23079 151.08545,162.67079 147.60545,162.67079 143.96545,162.63079 141.40545,165.23079 138.84545,167.79079 138.80545,171.43079 138.72545,175.03079 141.16545,177.75079 143.60545,180.43079 147.12545,180.55079 150.88545,180.75079 153.52545,177.95079 156.20545,175.15079 156.12545,171.39079 Z"
         style="font-style:normal;font-variant:normal;font-weight:normal;font-stretch:normal;font-family:abeatbyKai;-inkscape-font-specification:abeatbyKai;fill:#ffffff;fill-opacity:1"
         id="path4976"
         inkscape:connector-curvature="0" />
      <path
         d="M 185.64982,171.43079 185.64982,181.95079 Q 185.64982,186.27079 182.08982,189.11079 178.56982,191.95079 174.00982,191.79079 169.92982,191.63079 166.96982,189.31079 164.16982,187.07079 163.20982,183.59079 L 166.16982,183.59079 Q 166.84982,185.95079 169.20982,187.63079 171.56982,189.35079 174.36982,189.35079 177.72982,189.31079 180.16982,186.99079 182.64982,184.71079 182.64982,181.51079 L 182.64982,179.35079 Q 179.28982,183.19079 174.24982,183.39079 169.32982,183.55079 165.76982,179.99079 162.20982,176.39079 162.20982,171.39079 162.20982,166.59079 165.48982,163.11079 168.80982,159.63079 173.56982,159.47079 178.48982,159.35079 182.08982,162.95079 185.72982,166.51079 185.64982,171.43079 Z M 182.56982,171.67079 Q 182.68982,167.91079 180.00982,165.11079 177.36982,162.31079 173.60982,162.47079 170.08982,162.63079 167.64982,165.35079 165.20982,168.03079 165.24982,171.63079 165.32982,175.27079 167.88982,177.83079 170.44982,180.39079 174.04982,180.39079 177.56982,180.39079 180.00982,177.83079 182.48982,175.27079 182.56982,171.67079 Z"
         style="font-style:normal;font-variant:normal;font-weight:normal;font-stretch:normal;font-family:abeatbyKai;-inkscape-font-specification:abeatbyKai;fill:#ffffff;fill-opacity:1"
         id="path4978"
         inkscape:connector-curvature="0" />
      <path
         d="M 212.25045,171.59079 212.25045,171.75079 212.25045,183.03079 209.29045,183.03079 209.29045,179.47079 Q 205.57045,183.71079 200.17045,183.55079 195.45045,183.39079 192.13045,179.91079 188.81045,176.43079 188.81045,171.63079 188.81045,166.63079 192.37045,163.07079 195.93045,159.47079 200.89045,159.67079 205.69045,159.83079 209.05045,163.35079 212.41045,166.83079 212.25045,171.59079 Z M 209.21045,171.35079 Q 209.13045,167.75079 206.65045,165.19079 204.17045,162.63079 200.69045,162.63079 197.05045,162.63079 194.49045,165.19079 191.93045,167.75079 191.89045,171.39079 191.81045,174.99079 194.25045,177.71079 196.73045,180.39079 200.21045,180.55079 203.97045,180.71079 206.61045,177.95079 209.29045,175.15079 209.21045,171.35079 Z"
         style="font-style:normal;font-variant:normal;font-weight:normal;font-stretch:normal;font-family:abeatbyKai;-inkscape-font-specification:abeatbyKai;fill:#ffffff;fill-opacity:1"
         id="path4980"
         inkscape:connector-curvature="0" />
      <path
         d="M 238.31639,171.75079 Q 238.43639,176.67079 234.79639,180.27079 231.15639,183.83079 226.23639,183.67079 221.47639,183.55079 218.15639,180.07079 214.87639,176.59079 214.87639,171.79079 214.87639,166.79079 218.43639,163.23079 221.99639,159.63079 226.91639,159.79079 231.95639,159.99079 235.31639,163.83079 L 235.31639,152.35079 238.31639,152.35079 238.31639,171.75079 Z M 235.23639,171.51079 Q 235.15639,167.91079 232.67639,165.35079 230.23639,162.79079 226.71639,162.79079 223.11639,162.75079 220.51639,165.35079 217.95639,167.91079 217.91639,171.55079 217.87639,175.15079 220.31639,177.87079 222.75639,180.55079 226.27639,180.67079 230.03639,180.87079 232.67639,178.07079 235.35639,175.27079 235.23639,171.51079 Z"
         style="font-style:normal;font-variant:normal;font-weight:normal;font-stretch:normal;font-family:abeatbyKai;-inkscape-font-specification:abeatbyKai;fill:#ffffff;fill-opacity:1"
         id="path4982"
         inkscape:connector-curvature="0" />
      <path
         d="M 250.54482,162.83079 Q 248.42482,162.91079 247.10482,163.99079 245.78482,165.07079 245.30482,165.87079 244.54482,167.19079 244.54482,169.39079 L 244.54482,183.03079 241.34482,183.03079 241.34482,160.23079 244.18482,160.23079 244.18482,163.47079 Q 245.14482,161.63079 247.02482,160.63079 248.74482,159.71079 250.54482,159.79079 L 250.54482,162.83079 Z"
         style="font-style:normal;font-variant:normal;font-weight:normal;font-stretch:normal;font-family:abeatbyKai;-inkscape-font-specification:abeatbyKai;fill:#ffffff;fill-opacity:1"
         id="path4984"
         inkscape:connector-curvature="0" />
      <path
         d="M 254.88895,167.55679 252.91295,167.55679 252.91295,164.09879 254.88895,164.09879 254.88895,167.55679 Z"
         style="font-size:64.99999762%;baseline-shift:super;fill:#ffffff;fill-opacity:1"
         id="path4986"
         inkscape:connector-curvature="0" />
      <path
         d="M 258.97623,150.70879 257.02623,150.70879 257.02623,147.25079 258.97623,147.25079 258.97623,150.70879 Z M 258.97623,167.29679 257.02623,167.29679 257.02623,152.47679 258.97623,152.47679 258.97623,167.29679 Z"
         style="font-size:64.99999762%;baseline-shift:super;fill:#ffffff;fill-opacity:1"
         id="path4988"
         inkscape:connector-curvature="0" />
      <path
         d="M 276.37551,159.88679 Q 276.37551,163.08479 274.03551,165.42479 271.72151,167.73879 268.52351,167.63479 265.42951,167.55679 263.27151,165.29479 261.13951,163.03279 261.13951,159.91279 261.13951,156.66279 263.45351,154.34879 265.76751,152.00879 268.96551,152.11279 272.05951,152.21679 274.21751,154.50479 276.37551,156.76679 276.37551,159.88679 Z M 274.39951,159.73079 Q 274.32151,157.39079 272.70951,155.72679 271.12351,154.06279 268.86151,154.06279 266.49551,154.03679 264.83151,155.72679 263.16751,157.39079 263.14151,159.75679 263.08951,162.09679 264.67551,163.86479 266.26151,165.60679 268.54951,165.68479 270.99351,165.81479 272.70951,163.99479 274.45151,162.17479 274.39951,159.73079 Z"
         style="font-size:64.99999762%;baseline-shift:super;fill:#ffffff;fill-opacity:1"
         id="path4990"
         inkscape:connector-curvature="0" />
    </g>
  </g>
</svg>
