<svg xmlns="http://www.w3.org/2000/svg" width="68.267" height="68.267" viewBox="0 0 63.999996 64.000003"><g transform="matrix(.064 0 0 .064 9.835 -2.065)"><circle r="401.429" cy="532.271" cx="346.333" fill="#fff"/><path d="M346.333 32.271a500 500 0 0 0-500 500 500 500 0 0 0 500 500 500 500 0 0 0 500-500 500 500 0 0 0-500-500zm-154.28 187.292c32.958.199 62.825 21.225 73.98 54.798l2.825 8.5.326 64.23.326 64.231 116.71.27 116.708.27 9.166 3.117c20.681 7.033 37.388 23.148 45.493 43.882 2.756 7.05 3.185 9.514 3.617 20.74.546 14.226-.55 21.889-4.467 31.21-10.131 24.106-32.424 41.373-57.47 44.513-5.284.663-48.428 1.037-119.061 1.037H269.428l.01 30.75c0 16.913.474 33.613 1.041 37.112 4.836 29.802 26.94 54.058 56.87 62.4 7.41 2.066 9.542 2.119 94.081 2.395 57.595.187 89.007.66 94 1.41 22.782 3.42 45.189 20.419 55.952 42.449 9.345 19.128 10.31 43.445 2.502 63.041-8.575 21.522-28.486 39.548-51.48 46.61l-7.474 2.292-90 .147c-49.5.08-93.862-.204-98.583-.633h-.004c-30.047-2.731-57.525-10.24-81.518-22.273-24.375-12.225-41.83-25.036-62.897-46.163-37.341-37.447-57.735-77.594-66.12-130.156-1.587-9.94-1.77-25.473-2.124-179.88-.394-172.175-.234-181.448 3.336-192.239 8.157-24.658 27.535-43.609 51.914-50.77 7.743-2.274 15.514-3.336 23.12-3.29z" fill="#37abc8"/></g></svg>